<?xml version="1.0" encoding="UTF-8" standalone="no"?>
<!DOCTYPE svg PUBLIC "-//W3C//DTD SVG 1.1//EN"
 "http://www.w3.org/Graphics/SVG/1.1/DTD/svg11.dtd">
<!-- Generated by graphviz version 8.0.1 (20230327.1645)
 -->
<!-- Title: Tree Pages: 1 -->
<svg width="720pt" height="434pt"
 viewBox="0.00 0.00 720.00 434.49" xmlns="http://www.w3.org/2000/svg" xmlns:xlink="http://www.w3.org/1999/xlink">
<g id="graph0" class="graph" transform="scale(0.778659 0.778659) rotate(0) translate(4 554)">
<title>Tree</title>
<polygon fill="white" stroke="none" points="-4,4 -4,-554 920.67,-554 920.67,4 -4,4"/>
<!-- 0 -->
<g id="node1" class="node">
<title>0</title>
<polygon fill="#eda775" stroke="black" points="173.17,-336.5 18.17,-336.5 18.17,-268.5 173.17,-268.5 173.17,-336.5"/>
<text text-anchor="start" x="26.17" y="-321.3" font-family="Helvetica,sans-Serif" font-size="14.00">Coupler_System ≤ &#45;0.5</text>
<text text-anchor="start" x="32.17" y="-306.3" font-family="Helvetica,sans-Serif" font-size="14.00">squared_error = 0.48</text>
<text text-anchor="start" x="39.67" y="-291.3" font-family="Helvetica,sans-Serif" font-size="14.00">samples = 393137</text>
<text text-anchor="start" x="50.67" y="-276.3" font-family="Helvetica,sans-Serif" font-size="14.00">value = 10.101</text>
</g>
<!-- 1 -->
<g id="node2" class="node">
<title>1</title>
<polygon fill="#eb9f68" stroke="black" points="405.17,-372.5 254.17,-372.5 254.17,-304.5 405.17,-304.5 405.17,-372.5"/>
<text text-anchor="start" x="269.67" y="-357.3" font-family="Helvetica,sans-Serif" font-size="14.00">YearMade ≤ 1991.5</text>
<text text-anchor="start" x="262.17" y="-342.3" font-family="Helvetica,sans-Serif" font-size="14.00">squared_error = 0.415</text>
<text text-anchor="start" x="273.67" y="-327.3" font-family="Helvetica,sans-Serif" font-size="14.00">samples = 350790</text>
<text text-anchor="start" x="288.67" y="-312.3" font-family="Helvetica,sans-Serif" font-size="14.00">value = 10.21</text>
</g>
<!-- 0&#45;&gt;1 -->
<g id="edge1" class="edge">
<title>0&#45;&gt;1</title>
<path fill="none" stroke="black" d="M173.6,-314.44C195.92,-317.9 220.42,-321.7 243.22,-325.24"/>
<polygon fill="black" stroke="black" points="242.5,-328.83 252.92,-326.9 243.57,-321.91 242.5,-328.83"/>
<text text-anchor="middle" x="233.74" y="-337.96" font-family="Helvetica,sans-Serif" font-size="14.00">True</text>
</g>
<!-- 8 -->
<g id="node9" class="node">
<title>8</title>
<polygon fill="#fbede3" stroke="black" points="405.17,-245.5 254.17,-245.5 254.17,-177.5 405.17,-177.5 405.17,-245.5"/>
<text text-anchor="start" x="269.67" y="-230.3" font-family="Helvetica,sans-Serif" font-size="14.00">YearMade ≤ 1998.5</text>
<text text-anchor="start" x="262.17" y="-215.3" font-family="Helvetica,sans-Serif" font-size="14.00">squared_error = 0.115</text>
<text text-anchor="start" x="277.17" y="-200.3" font-family="Helvetica,sans-Serif" font-size="14.00">samples = 42347</text>
<text text-anchor="start" x="288.67" y="-185.3" font-family="Helvetica,sans-Serif" font-size="14.00">value = 9.205</text>
</g>
<!-- 0&#45;&gt;8 -->
<g id="edge8" class="edge">
<title>0&#45;&gt;8</title>
<path fill="none" stroke="black" d="M173.6,-272.32C196.12,-263.49 220.86,-253.79 243.84,-244.77"/>
<polygon fill="black" stroke="black" points="244.88,-247.73 252.92,-240.82 242.33,-241.21 244.88,-247.73"/>
<text text-anchor="middle" x="231" y="-227.12" font-family="Helvetica,sans-Serif" font-size="14.00">False</text>
</g>
<!-- 2 -->
<g id="node3" class="node">
<title>2</title>
<polygon fill="#efb285" stroke="black" points="652.17,-486.5 501.17,-486.5 501.17,-418.5 652.17,-418.5 652.17,-486.5"/>
<text text-anchor="start" x="522.67" y="-471.3" font-family="Helvetica,sans-Serif" font-size="14.00">ModelID ≤ 4418.5</text>
<text text-anchor="start" x="509.17" y="-456.3" font-family="Helvetica,sans-Serif" font-size="14.00">squared_error = 0.373</text>
<text text-anchor="start" x="520.67" y="-441.3" font-family="Helvetica,sans-Serif" font-size="14.00">samples = 153290</text>
<text text-anchor="start" x="535.67" y="-426.3" font-family="Helvetica,sans-Serif" font-size="14.00">value = 9.969</text>
</g>
<!-- 1&#45;&gt;2 -->
<g id="edge2" class="edge">
<title>1&#45;&gt;2</title>
<path fill="none" stroke="black" d="M404.51,-372.86C431.98,-385.64 463.36,-400.24 491.68,-413.42"/>
<polygon fill="black" stroke="black" points="490.01,-416.97 500.55,-418.02 492.96,-410.62 490.01,-416.97"/>
</g>
<!-- 5 -->
<g id="node6" class="node">
<title>5</title>
<polygon fill="#e89051" stroke="black" points="664.67,-372.5 488.67,-372.5 488.67,-304.5 664.67,-304.5 664.67,-372.5"/>
<text text-anchor="start" x="496.67" y="-357.3" font-family="Helvetica,sans-Serif" font-size="14.00">fiProductClassDesc ≤ 12.5</text>
<text text-anchor="start" x="509.17" y="-342.3" font-family="Helvetica,sans-Serif" font-size="14.00">squared_error = 0.368</text>
<text text-anchor="start" x="520.67" y="-327.3" font-family="Helvetica,sans-Serif" font-size="14.00">samples = 197500</text>
<text text-anchor="start" x="531.67" y="-312.3" font-family="Helvetica,sans-Serif" font-size="14.00">value = 10.397</text>
</g>
<!-- 1&#45;&gt;5 -->
<g id="edge5" class="edge">
<title>1&#45;&gt;5</title>
<path fill="none" stroke="black" d="M405.51,-338.5C428.2,-338.5 453.49,-338.5 477.48,-338.5"/>
<polygon fill="black" stroke="black" points="477.39,-342 487.39,-338.5 477.39,-335 477.39,-342"/>
</g>
<!-- 3 -->
<g id="node4" class="node">
<title>3</title>
<polygon fill="#eba06a" stroke="black" points="899.17,-550 748.17,-550 748.17,-497 899.17,-497 899.17,-550"/>
<text text-anchor="start" x="756.17" y="-534.8" font-family="Helvetica,sans-Serif" font-size="14.00">squared_error = 0.388</text>
<text text-anchor="start" x="771.17" y="-519.8" font-family="Helvetica,sans-Serif" font-size="14.00">samples = 78602</text>
<text text-anchor="start" x="778.67" y="-504.8" font-family="Helvetica,sans-Serif" font-size="14.00">value = 10.195</text>
</g>
<!-- 2&#45;&gt;3 -->
<g id="edge3" class="edge">
<title>2&#45;&gt;3</title>
<path fill="none" stroke="black" d="M652.51,-474.19C679.33,-481.96 709.78,-490.78 737.42,-498.8"/>
<polygon fill="black" stroke="black" points="736.28,-502.4 746.86,-501.82 738.23,-495.68 736.28,-502.4"/>
</g>
<!-- 4 -->
<g id="node5" class="node">
<title>4</title>
<polygon fill="#f3c4a3" stroke="black" points="899.17,-479 748.17,-479 748.17,-426 899.17,-426 899.17,-479"/>
<text text-anchor="start" x="756.17" y="-463.8" font-family="Helvetica,sans-Serif" font-size="14.00">squared_error = 0.248</text>
<text text-anchor="start" x="771.17" y="-448.8" font-family="Helvetica,sans-Serif" font-size="14.00">samples = 74688</text>
<text text-anchor="start" x="782.67" y="-433.8" font-family="Helvetica,sans-Serif" font-size="14.00">value = 9.731</text>
</g>
<!-- 2&#45;&gt;4 -->
<g id="edge4" class="edge">
<title>2&#45;&gt;4</title>
<path fill="none" stroke="black" d="M652.51,-452.5C679.22,-452.5 709.51,-452.5 737.05,-452.5"/>
<polygon fill="black" stroke="black" points="736.86,-456 746.86,-452.5 736.86,-449 736.86,-456"/>
</g>
<!-- 6 -->
<g id="node7" class="node">
<title>6</title>
<polygon fill="#eda876" stroke="black" points="899.17,-408 748.17,-408 748.17,-355 899.17,-355 899.17,-408"/>
<text text-anchor="start" x="756.17" y="-392.8" font-family="Helvetica,sans-Serif" font-size="14.00">squared_error = 0.205</text>
<text text-anchor="start" x="771.17" y="-377.8" font-family="Helvetica,sans-Serif" font-size="14.00">samples = 77205</text>
<text text-anchor="start" x="778.67" y="-362.8" font-family="Helvetica,sans-Serif" font-size="14.00">value = 10.095</text>
</g>
<!-- 5&#45;&gt;6 -->
<g id="edge6" class="edge">
<title>5&#45;&gt;6</title>
<path fill="none" stroke="black" d="M665.08,-353.84C688.56,-357.96 713.91,-362.41 737.28,-366.51"/>
<polygon fill="black" stroke="black" points="736.4,-370.09 746.86,-368.37 737.61,-363.19 736.4,-370.09"/>
</g>
<!-- 7 -->
<g id="node8" class="node">
<title>7</title>
<polygon fill="#e58139" stroke="black" points="899.17,-337 748.17,-337 748.17,-284 899.17,-284 899.17,-337"/>
<text text-anchor="start" x="756.17" y="-321.8" font-family="Helvetica,sans-Serif" font-size="14.00">squared_error = 0.377</text>
<text text-anchor="start" x="767.67" y="-306.8" font-family="Helvetica,sans-Serif" font-size="14.00">samples = 120295</text>
<text text-anchor="start" x="782.67" y="-291.8" font-family="Helvetica,sans-Serif" font-size="14.00">value = 10.59</text>
</g>
<!-- 5&#45;&gt;7 -->
<g id="edge7" class="edge">
<title>5&#45;&gt;7</title>
<path fill="none" stroke="black" d="M665.08,-328.51C688.45,-325.84 713.68,-322.96 736.96,-320.29"/>
<polygon fill="black" stroke="black" points="737.32,-323.66 746.86,-319.05 736.53,-316.71 737.32,-323.66"/>
</g>
<!-- 9 -->
<g id="node10" class="node">
<title>9</title>
<polygon fill="#fefbf9" stroke="black" points="664.67,-245.5 488.67,-245.5 488.67,-177.5 664.67,-177.5 664.67,-245.5"/>
<text text-anchor="start" x="496.67" y="-230.3" font-family="Helvetica,sans-Serif" font-size="14.00">fiProductClassDesc ≤ 39.5</text>
<text text-anchor="start" x="509.17" y="-215.3" font-family="Helvetica,sans-Serif" font-size="14.00">squared_error = 0.088</text>
<text text-anchor="start" x="524.17" y="-200.3" font-family="Helvetica,sans-Serif" font-size="14.00">samples = 17571</text>
<text text-anchor="start" x="535.67" y="-185.3" font-family="Helvetica,sans-Serif" font-size="14.00">value = 9.026</text>
</g>
<!-- 8&#45;&gt;9 -->
<g id="edge9" class="edge">
<title>8&#45;&gt;9</title>
<path fill="none" stroke="black" d="M405.51,-211.5C428.2,-211.5 453.49,-211.5 477.48,-211.5"/>
<polygon fill="black" stroke="black" points="477.39,-215 487.39,-211.5 477.39,-208 477.39,-215"/>
</g>
<!-- 12 -->
<g id="node13" class="node">
<title>12</title>
<polygon fill="#f9e4d4" stroke="black" points="664.67,-131.5 488.67,-131.5 488.67,-63.5 664.67,-63.5 664.67,-131.5"/>
<text text-anchor="start" x="496.67" y="-116.3" font-family="Helvetica,sans-Serif" font-size="14.00">fiProductClassDesc ≤ 39.5</text>
<text text-anchor="start" x="509.17" y="-101.3" font-family="Helvetica,sans-Serif" font-size="14.00">squared_error = 0.095</text>
<text text-anchor="start" x="524.17" y="-86.3" font-family="Helvetica,sans-Serif" font-size="14.00">samples = 24776</text>
<text text-anchor="start" x="535.67" y="-71.3" font-family="Helvetica,sans-Serif" font-size="14.00">value = 9.331</text>
</g>
<!-- 8&#45;&gt;12 -->
<g id="edge12" class="edge">
<title>8&#45;&gt;12</title>
<path fill="none" stroke="black" d="M404.51,-177.14C431.98,-164.36 463.36,-149.76 491.68,-136.58"/>
<polygon fill="black" stroke="black" points="492.96,-139.38 500.55,-131.98 490.01,-133.03 492.96,-139.38"/>
</g>
<!-- 10 -->
<g id="node11" class="node">
<title>10</title>
<polygon fill="#ffffff" stroke="black" points="899.17,-266 748.17,-266 748.17,-213 899.17,-213 899.17,-266"/>
<text text-anchor="start" x="756.17" y="-250.8" font-family="Helvetica,sans-Serif" font-size="14.00">squared_error = 0.071</text>
<text text-anchor="start" x="771.17" y="-235.8" font-family="Helvetica,sans-Serif" font-size="14.00">samples = 13142</text>
<text text-anchor="start" x="786.17" y="-220.8" font-family="Helvetica,sans-Serif" font-size="14.00">value = 8.98</text>
</g>
<!-- 9&#45;&gt;10 -->
<g id="edge10" class="edge">
<title>9&#45;&gt;10</title>
<path fill="none" stroke="black" d="M665.08,-221.49C688.45,-224.16 713.68,-227.04 736.96,-229.71"/>
<polygon fill="black" stroke="black" points="736.53,-233.29 746.86,-230.95 737.32,-226.34 736.53,-233.29"/>
</g>
<!-- 11 -->
<g id="node12" class="node">
<title>11</title>
<polygon fill="#fcf1e8" stroke="black" points="899.17,-195 748.17,-195 748.17,-142 899.17,-142 899.17,-195"/>
<text text-anchor="start" x="756.17" y="-179.8" font-family="Helvetica,sans-Serif" font-size="14.00">squared_error = 0.116</text>
<text text-anchor="start" x="775.17" y="-164.8" font-family="Helvetica,sans-Serif" font-size="14.00">samples = 4429</text>
<text text-anchor="start" x="782.67" y="-149.8" font-family="Helvetica,sans-Serif" font-size="14.00">value = 9.164</text>
</g>
<!-- 9&#45;&gt;11 -->
<g id="edge11" class="edge">
<title>9&#45;&gt;11</title>
<path fill="none" stroke="black" d="M665.08,-196.16C688.56,-192.04 713.91,-187.59 737.28,-183.49"/>
<polygon fill="black" stroke="black" points="737.61,-186.81 746.86,-181.63 736.4,-179.91 737.61,-186.81"/>
</g>
<!-- 13 -->
<g id="node14" class="node">
<title>13</title>
<polygon fill="#fbebdf" stroke="black" points="899.17,-124 748.17,-124 748.17,-71 899.17,-71 899.17,-124"/>
<text text-anchor="start" x="756.17" y="-108.8" font-family="Helvetica,sans-Serif" font-size="14.00">squared_error = 0.087</text>
<text text-anchor="start" x="771.17" y="-93.8" font-family="Helvetica,sans-Serif" font-size="14.00">samples = 13195</text>
<text text-anchor="start" x="782.67" y="-78.8" font-family="Helvetica,sans-Serif" font-size="14.00">value = 9.241</text>
</g>
<!-- 12&#45;&gt;13 -->
<g id="edge13" class="edge">
<title>12&#45;&gt;13</title>
<path fill="none" stroke="black" d="M665.08,-97.5C688.45,-97.5 713.68,-97.5 736.96,-97.5"/>
<polygon fill="black" stroke="black" points="736.86,-101 746.86,-97.5 736.86,-94 736.86,-101"/>
</g>
<!-- 14 -->
<g id="node15" class="node">
<title>14</title>
<polygon fill="#f8dbc7" stroke="black" points="899.17,-53 748.17,-53 748.17,0 899.17,0 899.17,-53"/>
<text text-anchor="start" x="756.17" y="-37.8" font-family="Helvetica,sans-Serif" font-size="14.00">squared_error = 0.083</text>
<text text-anchor="start" x="771.17" y="-22.8" font-family="Helvetica,sans-Serif" font-size="14.00">samples = 11581</text>
<text text-anchor="start" x="782.67" y="-7.8" font-family="Helvetica,sans-Serif" font-size="14.00">value = 9.434</text>
</g>
<!-- 12&#45;&gt;14 -->
<g id="edge14" class="edge">
<title>12&#45;&gt;14</title>
<path fill="none" stroke="black" d="M665.08,-72.17C688.66,-65.33 714.14,-57.95 737.59,-51.15"/>
<polygon fill="black" stroke="black" points="738.23,-54.32 746.86,-48.18 736.28,-47.6 738.23,-54.32"/>
</g>
</g>
</svg>
