<?xml version="1.0" encoding="UTF-8" standalone="no"?>
<!DOCTYPE svg PUBLIC "-//W3C//DTD SVG 1.1//EN"
 "http://www.w3.org/Graphics/SVG/1.1/DTD/svg11.dtd">
<!-- Generated by graphviz version 8.1.0 (20230707.0739)
 -->
<!-- Title: G Pages: 1 -->
<svg width="426pt" height="90pt"
 viewBox="0.00 0.00 426.00 90.00" xmlns="http://www.w3.org/2000/svg" xmlns:xlink="http://www.w3.org/1999/xlink">
<g id="graph0" class="graph" transform="scale(1 1) rotate(0) translate(0 90)">
<title>G</title>
<!-- State -->
<g id="node1" class="node">
<title>State</title>
</g>
<!-- Agent -->
<g id="node2" class="node">
<title>Agent</title>
<polygon fill="none" stroke="black" points="171,-36 117,-36 117,0 171,0 171,-36"/>
<text text-anchor="middle" x="144" y="-12.95" font-family="Times,serif" font-size="14.00">Agent</text>
</g>
<!-- State&#45;&gt;Agent -->
<g id="edge1" class="edge">
<title>State&#45;&gt;Agent</title>
<path fill="none" stroke="black" d="M53.81,-18C69.24,-18 89.09,-18 106.15,-18"/>
<polygon fill="black" stroke="black" points="105.88,-21.5 115.88,-18 105.88,-14.5 105.88,-21.5"/>
<text text-anchor="middle" x="85.5" y="-21.2" font-family="Times,serif" font-size="14.00">State</text>
</g>
<!-- Environment -->
<g id="node4" class="node">
<title>Environment</title>
<polygon fill="none" stroke="black" points="331,-36 243.75,-36 243.75,0 331,0 331,-36"/>
<text text-anchor="middle" x="287.38" y="-12.95" font-family="Times,serif" font-size="14.00">Environment</text>
</g>
<!-- Agent&#45;&gt;Environment -->
<g id="edge2" class="edge">
<title>Agent&#45;&gt;Environment</title>
<path fill="none" stroke="black" d="M171.26,-18C188.46,-18 211.57,-18 232.57,-18"/>
<polygon fill="black" stroke="black" points="232.32,-21.5 242.32,-18 232.32,-14.5 232.32,-21.5"/>
<text text-anchor="middle" x="207.38" y="-21.2" font-family="Times,serif" font-size="14.00">Action</text>
</g>
<!-- Action -->
<g id="node3" class="node">
<title>Action</title>
</g>
<!-- Reward -->
<g id="node5" class="node">
<title>Reward</title>
<text text-anchor="middle" x="397" y="-12.95" font-family="Times,serif" font-size="14.00">Reward</text>
</g>
<!-- Environment&#45;&gt;Reward -->
<g id="edge3" class="edge">
<title>Environment&#45;&gt;Reward</title>
<path fill="none" stroke="black" d="M331.22,-18C339.86,-18 348.9,-18 357.38,-18"/>
<polygon fill="black" stroke="black" points="357.14,-21.5 367.14,-18 357.14,-14.5 357.14,-21.5"/>
</g>
</g>
</svg>
