<?xml version="1.0" encoding="UTF-8" standalone="no"?>
<!DOCTYPE svg PUBLIC "-//W3C//DTD SVG 1.1//EN"
 "http://www.w3.org/Graphics/SVG/1.1/DTD/svg11.dtd">
<!-- Generated by graphviz version 8.1.0 (20230707.0739)
 -->
<!-- Title: G Pages: 1 -->
<svg width="309pt" height="95pt"
 viewBox="0.00 0.00 309.00 94.76" xmlns="http://www.w3.org/2000/svg" xmlns:xlink="http://www.w3.org/1999/xlink">
<g id="graph0" class="graph" transform="scale(1 1) rotate(0) translate(0 94.76)">
<title>G</title>
<!-- Agent -->
<g id="node1" class="node">
<title>Agent</title>
<polygon fill="none" stroke="black" points="54,-40.76 0,-40.76 0,-4.76 54,-4.76 54,-40.76"/>
<text text-anchor="middle" x="27" y="-17.71" font-family="Times,serif" font-size="14.00">Agent</text>
</g>
<!-- Environment -->
<g id="node3" class="node">
<title>Environment</title>
<polygon fill="none" stroke="black" points="214,-40.76 126.75,-40.76 126.75,-4.76 214,-4.76 214,-40.76"/>
<text text-anchor="middle" x="170.38" y="-17.71" font-family="Times,serif" font-size="14.00">Environment</text>
</g>
<!-- Agent&#45;&gt;Environment -->
<g id="edge1" class="edge">
<title>Agent&#45;&gt;Environment</title>
<path fill="none" stroke="black" d="M54.26,-22.76C71.46,-22.76 94.57,-22.76 115.57,-22.76"/>
<polygon fill="black" stroke="black" points="115.32,-26.26 125.32,-22.76 115.32,-19.26 115.32,-26.26"/>
<text text-anchor="middle" x="90.38" y="-25.96" font-family="Times,serif" font-size="14.00">Action</text>
</g>
<!-- Action -->
<g id="node2" class="node">
<title>Action</title>
</g>
<!-- Environment&#45;&gt;Agent -->
<g id="edge2" class="edge">
<title>Environment&#45;&gt;Agent</title>
<path fill="none" stroke="black" d="M126.67,-5.82C109.65,-1.14 89.88,1.7 72,-2.26 69.5,-2.82 66.98,-3.53 64.46,-4.35"/>
<polygon fill="black" stroke="black" points="63.41,-1.39 55.34,-8.25 65.93,-7.92 63.41,-1.39"/>
<text text-anchor="middle" x="90.38" y="-4.96" font-family="Times,serif" font-size="14.00">State</text>
</g>
<!-- Reward -->
<g id="node4" class="node">
<title>Reward</title>
<text text-anchor="middle" x="280" y="-17.71" font-family="Times,serif" font-size="14.00">Reward</text>
</g>
<!-- Environment&#45;&gt;Reward -->
<g id="edge3" class="edge">
<title>Environment&#45;&gt;Reward</title>
<path fill="none" stroke="black" d="M214.22,-22.76C222.86,-22.76 231.9,-22.76 240.38,-22.76"/>
<polygon fill="black" stroke="black" points="240.14,-26.26 250.14,-22.76 240.14,-19.26 240.14,-26.26"/>
</g>
</g>
</svg>
