<?xml version="1.0" encoding="UTF-8" standalone="no"?>
<!DOCTYPE svg PUBLIC "-//W3C//DTD SVG 1.1//EN"
 "http://www.w3.org/Graphics/SVG/1.1/DTD/svg11.dtd">
<!-- Generated by graphviz version 7.0.5 (20221223.1930)
 -->
<!-- Title: Tree Pages: 1 -->
<svg width="720pt" height="434pt"
 viewBox="0.00 0.00 720.00 434.49" xmlns="http://www.w3.org/2000/svg" xmlns:xlink="http://www.w3.org/1999/xlink">
<g id="graph0" class="graph" transform="scale(0.778659 0.778659) rotate(0) translate(4 554)">
<title>Tree</title>
<polygon fill="white" stroke="none" points="-4,4 -4,-554 920.67,-554 920.67,4 -4,4"/>
<!-- 0 -->
<g id="node1" class="node">
<title>0</title>
<polygon fill="#eca571" stroke="black" points="173.17,-336.5 18.17,-336.5 18.17,-268.5 173.17,-268.5 173.17,-336.5"/>
<text text-anchor="start" x="26.17" y="-321.3" font-family="Helvetica,sans-Serif" font-size="14.00">Coupler_System ≤ &#45;0.5</text>
<text text-anchor="start" x="28.17" y="-306.3" font-family="Helvetica,sans-Serif" font-size="14.00">squared_error = 0.479</text>
<text text-anchor="start" x="43.17" y="-291.3" font-family="Helvetica,sans-Serif" font-size="14.00">samples = 28588</text>
<text text-anchor="start" x="50.67" y="-276.3" font-family="Helvetica,sans-Serif" font-size="14.00">value = 10.099</text>
</g>
<!-- 1 -->
<g id="node2" class="node">
<title>1</title>
<polygon fill="#eb9c63" stroke="black" points="405.17,-372.5 254.17,-372.5 254.17,-304.5 405.17,-304.5 405.17,-372.5"/>
<text text-anchor="start" x="269.67" y="-357.3" font-family="Helvetica,sans-Serif" font-size="14.00">YearMade ≤ 1991.5</text>
<text text-anchor="start" x="262.17" y="-342.3" font-family="Helvetica,sans-Serif" font-size="14.00">squared_error = 0.412</text>
<text text-anchor="start" x="277.17" y="-327.3" font-family="Helvetica,sans-Serif" font-size="14.00">samples = 25448</text>
<text text-anchor="start" x="288.67" y="-312.3" font-family="Helvetica,sans-Serif" font-size="14.00">value = 10.21</text>
</g>
<!-- 0&#45;&gt;1 -->
<g id="edge1" class="edge">
<title>0&#45;&gt;1</title>
<path fill="none" stroke="black" d="M173.6,-314.44C195.71,-317.87 219.97,-321.63 242.6,-325.15"/>
<polygon fill="black" stroke="black" points="242,-328.59 252.42,-326.67 243.08,-321.68 242,-328.59"/>
<text text-anchor="middle" x="233.74" y="-337.96" font-family="Helvetica,sans-Serif" font-size="14.00">True</text>
</g>
<!-- 8 -->
<g id="node9" class="node">
<title>8</title>
<polygon fill="#fbece2" stroke="black" points="405.17,-245.5 254.17,-245.5 254.17,-177.5 405.17,-177.5 405.17,-245.5"/>
<text text-anchor="start" x="269.67" y="-230.3" font-family="Helvetica,sans-Serif" font-size="14.00">YearMade ≤ 1999.5</text>
<text text-anchor="start" x="262.17" y="-215.3" font-family="Helvetica,sans-Serif" font-size="14.00">squared_error = 0.113</text>
<text text-anchor="start" x="281.17" y="-200.3" font-family="Helvetica,sans-Serif" font-size="14.00">samples = 3140</text>
<text text-anchor="start" x="288.67" y="-185.3" font-family="Helvetica,sans-Serif" font-size="14.00">value = 9.201</text>
</g>
<!-- 0&#45;&gt;8 -->
<g id="edge8" class="edge">
<title>0&#45;&gt;8</title>
<path fill="none" stroke="black" d="M173.6,-272.32C195.92,-263.57 220.42,-253.96 243.22,-245.01"/>
<polygon fill="black" stroke="black" points="244.48,-248.28 252.51,-241.37 241.92,-241.77 244.48,-248.28"/>
<text text-anchor="middle" x="231" y="-227.12" font-family="Helvetica,sans-Serif" font-size="14.00">False</text>
</g>
<!-- 2 -->
<g id="node3" class="node">
<title>2</title>
<polygon fill="#efaf82" stroke="black" points="652.17,-486.5 501.17,-486.5 501.17,-418.5 652.17,-418.5 652.17,-486.5"/>
<text text-anchor="start" x="522.67" y="-471.3" font-family="Helvetica,sans-Serif" font-size="14.00">ModelID ≤ 4418.5</text>
<text text-anchor="start" x="509.17" y="-456.3" font-family="Helvetica,sans-Serif" font-size="14.00">squared_error = 0.369</text>
<text text-anchor="start" x="524.17" y="-441.3" font-family="Helvetica,sans-Serif" font-size="14.00">samples = 10990</text>
<text text-anchor="start" x="535.67" y="-426.3" font-family="Helvetica,sans-Serif" font-size="14.00">value = 9.964</text>
</g>
<!-- 1&#45;&gt;2 -->
<g id="edge2" class="edge">
<title>1&#45;&gt;2</title>
<path fill="none" stroke="black" d="M404.51,-372.86C431.86,-385.59 463.08,-400.11 491.31,-413.25"/>
<polygon fill="black" stroke="black" points="489.64,-416.33 500.18,-417.38 492.59,-409.98 489.64,-416.33"/>
</g>
<!-- 5 -->
<g id="node6" class="node">
<title>5</title>
<polygon fill="#e78d4c" stroke="black" points="660.67,-372.5 492.67,-372.5 492.67,-304.5 660.67,-304.5 660.67,-372.5"/>
<text text-anchor="start" x="500.67" y="-357.3" font-family="Helvetica,sans-Serif" font-size="14.00">fiProductClassDesc ≤ 5.5</text>
<text text-anchor="start" x="509.17" y="-342.3" font-family="Helvetica,sans-Serif" font-size="14.00">squared_error = 0.364</text>
<text text-anchor="start" x="524.17" y="-327.3" font-family="Helvetica,sans-Serif" font-size="14.00">samples = 14458</text>
<text text-anchor="start" x="531.67" y="-312.3" font-family="Helvetica,sans-Serif" font-size="14.00">value = 10.397</text>
</g>
<!-- 1&#45;&gt;5 -->
<g id="edge5" class="edge">
<title>1&#45;&gt;5</title>
<path fill="none" stroke="black" d="M405.51,-338.5C429.3,-338.5 455.94,-338.5 480.95,-338.5"/>
<polygon fill="black" stroke="black" points="480.8,-342 490.8,-338.5 480.8,-335 480.8,-342"/>
</g>
<!-- 3 -->
<g id="node4" class="node">
<title>3</title>
<polygon fill="#eb9d66" stroke="black" points="899.17,-550 748.17,-550 748.17,-497 899.17,-497 899.17,-550"/>
<text text-anchor="start" x="756.17" y="-534.8" font-family="Helvetica,sans-Serif" font-size="14.00">squared_error = 0.382</text>
<text text-anchor="start" x="775.17" y="-519.8" font-family="Helvetica,sans-Serif" font-size="14.00">samples = 5663</text>
<text text-anchor="start" x="778.67" y="-504.8" font-family="Helvetica,sans-Serif" font-size="14.00">value = 10.189</text>
</g>
<!-- 2&#45;&gt;3 -->
<g id="edge3" class="edge">
<title>2&#45;&gt;3</title>
<path fill="none" stroke="black" d="M652.51,-474.19C679.22,-481.93 709.51,-490.71 737.05,-498.69"/>
<polygon fill="black" stroke="black" points="735.83,-501.98 746.41,-501.4 737.78,-495.26 735.83,-501.98"/>
</g>
<!-- 4 -->
<g id="node5" class="node">
<title>4</title>
<polygon fill="#f3c3a0" stroke="black" points="899.17,-479 748.17,-479 748.17,-426 899.17,-426 899.17,-479"/>
<text text-anchor="start" x="756.17" y="-463.8" font-family="Helvetica,sans-Serif" font-size="14.00">squared_error = 0.245</text>
<text text-anchor="start" x="775.17" y="-448.8" font-family="Helvetica,sans-Serif" font-size="14.00">samples = 5327</text>
<text text-anchor="start" x="782.67" y="-433.8" font-family="Helvetica,sans-Serif" font-size="14.00">value = 9.724</text>
</g>
<!-- 2&#45;&gt;4 -->
<g id="edge4" class="edge">
<title>2&#45;&gt;4</title>
<path fill="none" stroke="black" d="M652.51,-452.5C679.1,-452.5 709.24,-452.5 736.69,-452.5"/>
<polygon fill="black" stroke="black" points="736.35,-456 746.35,-452.5 736.35,-449 736.35,-456"/>
</g>
<!-- 6 -->
<g id="node7" class="node">
<title>6</title>
<polygon fill="#eeac7d" stroke="black" points="899.17,-408 748.17,-408 748.17,-355 899.17,-355 899.17,-408"/>
<text text-anchor="start" x="756.17" y="-392.8" font-family="Helvetica,sans-Serif" font-size="14.00">squared_error = 0.115</text>
<text text-anchor="start" x="775.17" y="-377.8" font-family="Helvetica,sans-Serif" font-size="14.00">samples = 3967</text>
<text text-anchor="start" x="778.67" y="-362.8" font-family="Helvetica,sans-Serif" font-size="14.00">value = 10.005</text>
</g>
<!-- 5&#45;&gt;6 -->
<g id="edge6" class="edge">
<title>5&#45;&gt;6</title>
<path fill="none" stroke="black" d="M660.95,-353.12C685.37,-357.4 712.12,-362.1 736.7,-366.41"/>
<polygon fill="black" stroke="black" points="735.89,-369.82 746.34,-368.1 737.1,-362.93 735.89,-369.82"/>
</g>
<!-- 7 -->
<g id="node8" class="node">
<title>7</title>
<polygon fill="#e58139" stroke="black" points="899.17,-337 748.17,-337 748.17,-284 899.17,-284 899.17,-337"/>
<text text-anchor="start" x="756.17" y="-321.8" font-family="Helvetica,sans-Serif" font-size="14.00">squared_error = 0.379</text>
<text text-anchor="start" x="771.17" y="-306.8" font-family="Helvetica,sans-Serif" font-size="14.00">samples = 10491</text>
<text text-anchor="start" x="778.67" y="-291.8" font-family="Helvetica,sans-Serif" font-size="14.00">value = 10.545</text>
</g>
<!-- 5&#45;&gt;7 -->
<g id="edge7" class="edge">
<title>5&#45;&gt;7</title>
<path fill="none" stroke="black" d="M660.95,-328.98C685.37,-326.19 712.12,-323.13 736.7,-320.32"/>
<polygon fill="black" stroke="black" points="736.79,-323.84 746.33,-319.22 735.99,-316.88 736.79,-323.84"/>
</g>
<!-- 9 -->
<g id="node10" class="node">
<title>9</title>
<polygon fill="#fef8f5" stroke="black" points="664.67,-245.5 488.67,-245.5 488.67,-177.5 664.67,-177.5 664.67,-245.5"/>
<text text-anchor="start" x="496.67" y="-230.3" font-family="Helvetica,sans-Serif" font-size="14.00">fiProductClassDesc ≤ 36.5</text>
<text text-anchor="start" x="513.17" y="-215.3" font-family="Helvetica,sans-Serif" font-size="14.00">squared_error = 0.09</text>
<text text-anchor="start" x="528.17" y="-200.3" font-family="Helvetica,sans-Serif" font-size="14.00">samples = 1527</text>
<text text-anchor="start" x="535.67" y="-185.3" font-family="Helvetica,sans-Serif" font-size="14.00">value = 9.051</text>
</g>
<!-- 8&#45;&gt;9 -->
<g id="edge9" class="edge">
<title>8&#45;&gt;9</title>
<path fill="none" stroke="black" d="M405.51,-211.5C428.1,-211.5 453.26,-211.5 477.15,-211.5"/>
<polygon fill="black" stroke="black" points="476.88,-215 486.88,-211.5 476.88,-208 476.88,-215"/>
</g>
<!-- 12 -->
<g id="node13" class="node">
<title>12</title>
<polygon fill="#f9e1d0" stroke="black" points="664.67,-131.5 488.67,-131.5 488.67,-63.5 664.67,-63.5 664.67,-131.5"/>
<text text-anchor="start" x="496.67" y="-116.3" font-family="Helvetica,sans-Serif" font-size="14.00">fiProductClassDesc ≤ 37.5</text>
<text text-anchor="start" x="509.17" y="-101.3" font-family="Helvetica,sans-Serif" font-size="14.00">squared_error = 0.094</text>
<text text-anchor="start" x="528.17" y="-86.3" font-family="Helvetica,sans-Serif" font-size="14.00">samples = 1613</text>
<text text-anchor="start" x="535.67" y="-71.3" font-family="Helvetica,sans-Serif" font-size="14.00">value = 9.344</text>
</g>
<!-- 8&#45;&gt;12 -->
<g id="edge12" class="edge">
<title>8&#45;&gt;12</title>
<path fill="none" stroke="black" d="M404.51,-177.14C431.86,-164.41 463.08,-149.89 491.31,-136.75"/>
<polygon fill="black" stroke="black" points="492.59,-140.02 500.18,-132.62 489.64,-133.67 492.59,-140.02"/>
</g>
<!-- 10 -->
<g id="node11" class="node">
<title>10</title>
<polygon fill="#ffffff" stroke="black" points="899.17,-266 748.17,-266 748.17,-213 899.17,-213 899.17,-266"/>
<text text-anchor="start" x="756.17" y="-250.8" font-family="Helvetica,sans-Serif" font-size="14.00">squared_error = 0.071</text>
<text text-anchor="start" x="778.67" y="-235.8" font-family="Helvetica,sans-Serif" font-size="14.00">samples = 750</text>
<text text-anchor="start" x="782.67" y="-220.8" font-family="Helvetica,sans-Serif" font-size="14.00">value = 8.969</text>
</g>
<!-- 9&#45;&gt;10 -->
<g id="edge10" class="edge">
<title>9&#45;&gt;10</title>
<path fill="none" stroke="black" d="M665.08,-221.49C688.34,-224.15 713.45,-227.02 736.64,-229.67"/>
<polygon fill="black" stroke="black" points="736.02,-233.12 746.35,-230.78 736.82,-226.17 736.02,-233.12"/>
</g>
<!-- 11 -->
<g id="node12" class="node">
<title>11</title>
<polygon fill="#fcf2eb" stroke="black" points="899.17,-195 748.17,-195 748.17,-142 899.17,-142 899.17,-195"/>
<text text-anchor="start" x="756.17" y="-179.8" font-family="Helvetica,sans-Serif" font-size="14.00">squared_error = 0.096</text>
<text text-anchor="start" x="778.67" y="-164.8" font-family="Helvetica,sans-Serif" font-size="14.00">samples = 777</text>
<text text-anchor="start" x="782.67" y="-149.8" font-family="Helvetica,sans-Serif" font-size="14.00">value = 9.129</text>
</g>
<!-- 9&#45;&gt;11 -->
<g id="edge11" class="edge">
<title>9&#45;&gt;11</title>
<path fill="none" stroke="black" d="M665.08,-196.16C688.34,-192.07 713.45,-187.67 736.64,-183.6"/>
<polygon fill="black" stroke="black" points="737.12,-187.07 746.37,-181.89 735.91,-180.17 737.12,-187.07"/>
</g>
<!-- 13 -->
<g id="node14" class="node">
<title>13</title>
<polygon fill="#fae7da" stroke="black" points="899.17,-124 748.17,-124 748.17,-71 899.17,-71 899.17,-124"/>
<text text-anchor="start" x="756.17" y="-108.8" font-family="Helvetica,sans-Serif" font-size="14.00">squared_error = 0.083</text>
<text text-anchor="start" x="778.67" y="-93.8" font-family="Helvetica,sans-Serif" font-size="14.00">samples = 854</text>
<text text-anchor="start" x="782.67" y="-78.8" font-family="Helvetica,sans-Serif" font-size="14.00">value = 9.263</text>
</g>
<!-- 12&#45;&gt;13 -->
<g id="edge13" class="edge">
<title>12&#45;&gt;13</title>
<path fill="none" stroke="black" d="M665.08,-97.5C688.34,-97.5 713.45,-97.5 736.64,-97.5"/>
<polygon fill="black" stroke="black" points="736.34,-101 746.34,-97.5 736.34,-94 736.34,-101"/>
</g>
<!-- 14 -->
<g id="node15" class="node">
<title>14</title>
<polygon fill="#f7dac5" stroke="black" points="899.17,-53 748.17,-53 748.17,0 899.17,0 899.17,-53"/>
<text text-anchor="start" x="756.17" y="-37.8" font-family="Helvetica,sans-Serif" font-size="14.00">squared_error = 0.091</text>
<text text-anchor="start" x="778.67" y="-22.8" font-family="Helvetica,sans-Serif" font-size="14.00">samples = 759</text>
<text text-anchor="start" x="782.67" y="-7.8" font-family="Helvetica,sans-Serif" font-size="14.00">value = 9.434</text>
</g>
<!-- 12&#45;&gt;14 -->
<g id="edge14" class="edge">
<title>12&#45;&gt;14</title>
<path fill="none" stroke="black" d="M665.08,-72.17C688.45,-65.4 713.68,-58.08 736.96,-51.34"/>
<polygon fill="black" stroke="black" points="737.77,-54.75 746.4,-48.6 735.83,-48.02 737.77,-54.75"/>
</g>
</g>
</svg>
