<?xml version="1.0" encoding="UTF-8" standalone="no"?>
<!DOCTYPE svg PUBLIC "-//W3C//DTD SVG 1.1//EN"
 "http://www.w3.org/Graphics/SVG/1.1/DTD/svg11.dtd">
<!-- Generated by graphviz version 8.1.0 (20230707.0739)
 -->
<!-- Title: G Pages: 1 -->
<svg width="321pt" height="59pt"
 viewBox="0.00 0.00 320.75 59.00" xmlns="http://www.w3.org/2000/svg" xmlns:xlink="http://www.w3.org/1999/xlink">
<g id="graph0" class="graph" transform="scale(1 1) rotate(0) translate(0 59)">
<title>G</title>
<!-- Simulate -->
<g id="node1" class="node">
<title>Simulate</title>
<polygon fill="none" stroke="black" points="64.75,-36 0,-36 0,0 64.75,0 64.75,-36"/>
<text text-anchor="middle" x="32.38" y="-12.95" font-family="Times,serif" font-size="14.00">Simulate</text>
</g>
<!-- Decision -->
<g id="node2" class="node">
<title>Decision</title>
<polygon fill="none" stroke="black" points="230.75,-59 100.75,-59 100.75,-23 230.75,-23 230.75,-59"/>
<text text-anchor="middle" x="165.75" y="-35.95" font-family="Times,serif" font-size="14.00">Choose decision rule</text>
</g>
<!-- Simulate&#45;&gt;Decision -->
<g id="edge1" class="edge">
<title>Simulate&#45;&gt;Decision</title>
<path fill="none" stroke="black" d="M65.18,-23.57C72.74,-24.89 81.12,-26.36 89.72,-27.86"/>
<polygon fill="black" stroke="black" points="88.82,-31.44 99.28,-29.71 90.03,-24.54 88.82,-31.44"/>
</g>
<!-- Test -->
<g id="node3" class="node">
<title>Test</title>
<polygon fill="none" stroke="black" points="320.75,-36 266.75,-36 266.75,0 320.75,0 320.75,-36"/>
<text text-anchor="middle" x="293.75" y="-12.95" font-family="Times,serif" font-size="14.00">Test</text>
</g>
<!-- Decision&#45;&gt;Test -->
<g id="edge2" class="edge">
<title>Decision&#45;&gt;Test</title>
<path fill="none" stroke="black" d="M231.23,-29.23C239.61,-27.7 247.95,-26.18 255.67,-24.77"/>
<polygon fill="black" stroke="black" points="256.25,-28.04 265.46,-22.8 254.99,-21.15 256.25,-28.04"/>
</g>
<!-- Test&#45;&gt;Simulate -->
<g id="edge3" class="edge">
<title>Test&#45;&gt;Simulate</title>
<path fill="none" stroke="black" d="M266.52,-15.93C255.49,-15.16 242.5,-14.38 230.75,-14 173,-12.14 158.5,-12.29 100.75,-14 92.78,-14.24 84.28,-14.63 76.11,-15.08"/>
<polygon fill="black" stroke="black" points="76.01,-11.64 66.23,-15.72 76.42,-18.63 76.01,-11.64"/>
</g>
</g>
</svg>
